<svg width="90" height="23" viewBox="0 0 90 23" fill="none" xmlns="http://www.w3.org/2000/svg">
<g id="logo">
<path id="Vector" d="M8.51144 16.9712C8.01023 17.1789 7.50451 17.3504 6.99202 17.4881C6.47953 17.6258 5.93994 17.7296 5.36875 17.7973C4.79756 17.8673 4.14058 17.9012 3.39329 17.9012H2.56698C2.05448 17.9012 1.7655 17.7544 1.69777 17.4588C1.62778 17.1631 1.59392 16.829 1.59392 16.4566V0.650024H0V16.9893C0 17.8154 0.158037 18.3955 0.471854 18.7295C0.785671 19.0636 1.35686 19.2306 2.18317 19.2306H3.71613C4.5018 19.2306 5.20169 19.1967 5.81126 19.1268C6.42083 19.0591 6.99202 18.9507 7.52258 18.8017C8.05313 18.655 8.56562 18.4722 9.05554 18.2555C9.41225 18.0975 9.78702 17.9192 10.1753 17.7206L11.2884 17.1563V15.6621L10.1753 16.2196C9.56577 16.5153 9.01038 16.7658 8.50918 16.9712H8.51144Z" fill="#FAFAFA"/>
<path id="Vector_2" d="M29.7359 10.8815C31.0341 10.8815 32.12 10.719 32.996 10.394C33.872 10.069 34.5741 9.65142 35.1047 9.14132C35.6352 8.63121 36.0145 8.04661 36.2403 7.38754C36.466 6.72846 36.5789 6.07615 36.5789 5.4261C36.5789 4.69931 36.457 4.00638 36.2109 3.3473C35.9648 2.68822 35.572 2.10814 35.0302 1.60706C34.4883 1.10599 33.7862 0.713248 32.9215 0.426595C32.0568 0.142198 30.9934 0 29.7359 0C28.4784 0 27.3405 0.153484 26.4465 0.458194C25.5524 0.762905 24.8277 1.16693 24.2791 1.66801C23.7282 2.16909 23.3309 2.74465 23.0848 3.39244C22.8387 4.04024 22.7168 4.71962 22.7168 5.42836C22.7168 6.17546 22.85 6.87743 23.1142 7.53651C23.3806 8.19559 23.7915 8.77566 24.3536 9.27674C24.9158 9.77782 25.636 10.1706 26.521 10.4572C27.406 10.7416 28.4784 10.8838 29.7359 10.8838V10.8815ZM24.5884 6.9C24.4213 6.40795 24.3378 5.91815 24.3378 5.4261C24.3378 5.01305 24.4259 4.56614 24.6042 4.08312C24.7803 3.60235 25.0761 3.15319 25.4892 2.74014C25.9024 2.32709 26.4533 1.98852 27.1418 1.72218C27.8304 1.45584 28.6951 1.32493 29.7382 1.32493C30.7812 1.32493 31.6166 1.43327 32.3051 1.64995C32.9937 1.86663 33.5401 2.16232 33.942 2.53474C34.3438 2.90942 34.6306 3.34504 34.7976 3.84612C34.9647 4.3472 35.0482 4.87311 35.0482 5.42385C35.0482 5.93621 34.9602 6.43729 34.7818 6.92708C34.6057 7.41913 34.31 7.85702 33.8968 8.23847C33.4837 8.62218 32.9373 8.92689 32.26 9.1526C31.5804 9.37831 30.7406 9.49117 29.7382 9.49117C28.6771 9.49117 27.8011 9.3738 27.1125 9.1368C26.4239 8.90206 25.873 8.59058 25.4599 8.20687C25.0467 7.82316 24.7555 7.38528 24.5907 6.89548L24.5884 6.9Z" fill="#FAFAFA"/>
<path id="Vector_3" d="M41.6406 13.6104C41.3358 13.4818 40.8775 13.4186 40.268 13.4186H25.1348V14.7751H39.7668C40.0806 14.7751 40.2928 14.7954 40.4012 14.8338C40.5095 14.8744 40.5637 15.0685 40.5637 15.4229V16.6914C40.5637 16.9668 40.4892 17.109 40.3425 17.118C40.1957 17.127 40.0129 17.1338 39.7961 17.1338H26.9341C26.6203 17.1338 26.3539 17.1428 26.1372 17.1631C25.9204 17.1835 25.7489 17.2331 25.6202 17.3098C25.4915 17.3888 25.3989 17.5152 25.3402 17.6936C25.2815 17.8696 25.2522 18.1066 25.2522 18.4023V21.1153C25.2522 21.7451 25.3492 22.1514 25.5479 22.3387C25.7443 22.526 26.1281 22.6186 26.6993 22.6186H42.0989L42.0696 21.1153H27.4963C27.2796 21.1153 27.1328 21.1063 27.0538 21.086C26.9748 21.0657 26.9364 20.9573 26.9364 20.761V19.1675C26.9364 18.8131 26.9748 18.6167 27.0538 18.5783C27.1328 18.54 27.2999 18.5197 27.555 18.5197H40.6224C41.232 18.5197 41.6293 18.4407 41.8167 18.2849C42.0041 18.1269 42.0967 17.7635 42.0967 17.1947V14.7774C42.0967 14.1296 41.9432 13.7414 41.6384 13.6127L41.6406 13.6104Z" fill="#FAFAFA"/>
<path id="Vector_4" d="M57.6136 19.0501V13.5359H64.0435C64.3979 13.5359 64.7027 13.5201 64.9578 13.4908C65.2129 13.4614 65.4252 13.387 65.5922 13.2696C65.7593 13.1522 65.8767 12.9807 65.9467 12.7527C66.0144 12.527 66.0505 12.2065 66.0505 11.7934V2.7108C66.0505 1.98401 65.9128 1.48744 65.6374 1.2211C65.362 0.954764 64.8517 0.823853 64.1044 0.823853H49.8269C49.4724 0.823853 49.1586 0.839652 48.8832 0.868994C48.6077 0.898337 48.3775 0.97282 48.1901 1.09019C48.0027 1.20756 47.8559 1.38587 47.7476 1.62061C47.6392 1.85535 47.585 2.18038 47.585 2.59343V13.5449H49.2083V3.00648C49.2083 2.61374 49.2828 2.37675 49.4295 2.29775C49.5763 2.21875 49.8472 2.18038 50.24 2.18038H63.5739C63.9667 2.18038 64.2128 2.24358 64.3121 2.37223C64.4115 2.50089 64.4589 2.76948 64.4589 3.18254V11.263C64.4589 11.6761 64.4047 11.9379 64.2963 12.044C64.188 12.1523 63.9283 12.2065 63.5152 12.2065H50.4094V13.5337H56.0536V19.0478H45.9956V20.463H67.6783V19.0478H57.6204L57.6136 19.0501Z" fill="#FAFAFA"/>
<path id="Vector_5" d="M77.6277 17.6055C76.3386 17.9192 75.0179 18.0772 73.661 18.0772H72.7467C72.4915 18.0772 72.2996 18.0388 72.171 17.9598C72.0423 17.8808 71.9542 17.7725 71.9045 17.6348C71.8549 17.4971 71.83 17.3391 71.83 17.1631V11.5C71.83 11.0486 71.8842 10.7619 71.9926 10.6445C72.101 10.5272 72.3516 10.4685 72.7444 10.4685H77.4652C78.1922 10.4685 78.7092 10.3804 79.014 10.2021C79.3188 10.0261 79.4723 9.58368 79.4723 8.87495V2.41509C79.4723 2.04266 79.4226 1.74698 79.3255 1.5303C79.2262 1.31361 79.0885 1.16239 78.9124 1.07436C78.7363 0.986331 78.5195 0.93216 78.2644 0.911846C78.0093 0.891532 77.7226 0.882502 77.4088 0.882502H71.0082C71.0082 0.882502 70.9992 0.882502 70.9924 0.882502V0.877991L70.1436 0.882502V2.23903H76.6118C77.0046 2.23903 77.3094 2.26386 77.5262 2.31352C77.7429 2.36317 77.8513 2.61371 77.8513 3.06513V8.34453C77.8513 8.73727 77.7971 8.94943 77.6887 8.97878C77.5803 9.00812 77.3501 9.02392 76.9956 9.02392H72.2748C71.4891 9.02392 70.9473 9.1774 70.6515 9.48211C70.3558 9.78682 70.209 10.3127 70.209 11.0598V17.1947C70.209 17.9802 70.3806 18.5512 70.726 18.9056C71.0692 19.2599 71.6268 19.436 72.3922 19.436H73.7197C74.467 19.436 75.1804 19.3976 75.8577 19.3186C76.535 19.2396 77.2033 19.1313 77.8625 18.9936C78.5218 18.8559 79.1788 18.6934 79.838 18.5061C80.4973 18.3187 81.1813 18.1178 81.888 17.9012L82.5224 17.689V16.355L81.5922 16.6349C80.2354 16.969 78.9124 17.294 77.6255 17.6077L77.6277 17.6055Z" fill="#FAFAFA"/>
<path id="Vector_6" d="M17.583 0V0.826101V9.14132H14.2507V0.826101V0H12.6567V0.826101V22.0881V23H14.2507V22.0881V10.5272H17.583V22.0881V22.9436H19.2063V22.0881V0.826101V0H17.583Z" fill="#FAFAFA"/>
<path id="Vector_7" d="M42.0671 11.9131V11.0599V0.826101V0H40.4438V0.826101V11.0599V11.9131H42.0671Z" fill="#FAFAFA"/>
<path id="Vector_8" d="M88.3789 0V9.14132H85.0466V0H83.4526V22.9436H85.042V22.1175C85.042 22.1175 85.0443 22.0972 85.0443 22.0881V10.5272H88.3766V22.9436H89.9999V0H88.3766H88.3789Z" fill="#FAFAFA"/>
</g>
</svg>
