<svg width="60" height="60" viewBox="0 0 60 60" fill="none" xmlns="http://www.w3.org/2000/svg">
<g id="Frame 2087327464">
<circle id="Ellipse 176" cx="30" cy="30" r="30" fill="#FAFAFA" fill-opacity="0.1"/>
<g id="Group 2085665352">
<path id="Vector" d="M25.9939 38C25.9939 39.0609 26.4153 40.0783 27.1655 40.8284C27.9156 41.5786 28.933 42 29.9939 42C31.0548 42 32.0722 41.5786 32.8223 40.8284C33.5725 40.0783 33.9939 39.0609 33.9939 38" stroke="#FAFAFA" stroke-width="1.5" stroke-linecap="round" stroke-linejoin="round"/>
<path id="Vector_2" d="M20.994 27C20.994 24.6131 21.9422 22.3239 23.63 20.636C25.3179 18.9482 27.607 18 29.994 18C32.3809 18 34.6701 18.9482 36.3579 20.636C38.0458 22.3239 38.994 24.6131 38.994 27C38.994 31.4775 40.0315 35.075 40.8565 36.5C40.9441 36.6518 40.9903 36.8239 40.9905 36.9991C40.9906 37.1744 40.9447 37.3466 40.8574 37.4985C40.77 37.6504 40.6443 37.7767 40.4928 37.8647C40.3412 37.9527 40.1692 37.9994 39.994 38H19.994C19.819 37.9989 19.6473 37.952 19.4961 37.8638C19.3449 37.7756 19.2195 37.6492 19.1325 37.4974C19.0454 37.3456 18.9997 37.1735 19 36.9985C19.0003 36.8235 19.0465 36.6516 19.134 36.5C19.9577 35.075 20.994 31.4762 20.994 27Z" fill="#FAFAFA"/>
</g>
</g>
</svg>
