<svg width="60" height="60" viewBox="0 0 60 60" fill="none" xmlns="http://www.w3.org/2000/svg">
<circle cx="30" cy="30" r="30" fill="#FAFAFA" fill-opacity="0.1"/>
<path d="M30 14C27.1005 14 24.75 16.3505 24.75 19.25V29.75C24.75 32.6495 27.1005 35 30 35C32.8995 35 35.25 32.6495 35.25 29.75V19.25C35.25 16.3505 32.8995 14 30 14Z" fill="#FAFAFA"/>
<path d="M22.5625 29.75C22.5625 29.0251 21.9749 28.4375 21.25 28.4375C20.5251 28.4375 19.9375 29.0251 19.9375 29.75C19.9375 31.0714 20.1978 32.3799 20.7035 33.6008C21.2092 34.8216 21.9503 35.9309 22.8847 36.8653C23.8191 37.7997 24.9284 38.5408 26.1492 39.0465C26.9703 39.3866 27.831 39.6157 28.7086 39.7293L28.7555 42.4375H26.5C25.7751 42.4375 25.1875 43.0251 25.1875 43.75C25.1875 44.4749 25.7751 45.0625 26.5 45.0625H33.5C34.2249 45.0625 34.8125 44.4749 34.8125 43.75C34.8125 43.0251 34.2249 42.4375 33.5 42.4375H31.3809L31.3339 39.7237C32.1968 39.6083 33.043 39.3811 33.8508 39.0465C35.0716 38.5409 36.1809 37.7997 37.1153 36.8653C38.0497 35.9309 38.7908 34.8216 39.2965 33.6008C39.8022 32.3799 40.0625 31.0714 40.0625 29.75C40.0625 29.0251 39.4749 28.4375 38.75 28.4375C38.0251 28.4375 37.4375 29.0251 37.4375 29.75C37.4375 30.7267 37.2451 31.6938 36.8714 32.5962C36.4976 33.4986 35.9497 34.3185 35.2591 35.0091C34.5685 35.6997 33.7486 36.2476 32.8462 36.6214C31.9439 36.9951 30.9767 37.1875 30 37.1875C29.0233 37.1875 28.0562 36.9951 27.1538 36.6214C26.2514 36.2476 25.4315 35.6997 24.7409 35.0091C24.0503 34.3185 23.5024 33.4986 23.1286 32.5962C22.7549 31.6938 22.5625 30.7267 22.5625 29.75Z" fill="#FAFAFA"/>
</svg>
