<svg width="80" height="73" viewBox="0 0 80 73" fill="none" xmlns="http://www.w3.org/2000/svg">
<g id="Frame 2087327640">
<path id="Union" fill-rule="evenodd" clip-rule="evenodd" d="M37.7146 9.30127C26.0378 9.30127 16.5719 18.7672 16.5719 30.444V50.7375H2.77051C1.2404 50.7375 0 51.9779 0 53.508C0 55.0382 1.2404 56.2786 2.77051 56.2786H18.7456C18.8035 56.2828 18.8621 56.285 18.9211 56.285H47.1114V70.3801C47.1114 71.6775 48.1632 72.7293 49.4606 72.7293H56.5082C57.8056 72.7293 58.8573 71.6775 58.8573 70.3801V56.285H77.6508C78.9482 56.285 80 55.2333 80 53.9358V30.444C80 18.7672 70.5341 9.30127 58.8573 9.30127H37.7146ZM37.6742 14.8289C28.6146 14.8289 21.2704 22.1731 21.2704 31.2327V50.0531C21.2704 50.4422 21.5858 50.7576 21.9749 50.7576H53.3735C53.7626 50.7576 54.078 50.4422 54.078 50.0531V31.2327C54.078 22.1731 46.7338 14.8289 37.6742 14.8289Z" fill="#5E6071"/>
<rect id="Rectangle 240652340" x="9.5" y="17.3013" width="3" height="3" transform="rotate(30 9.5 17.3013)" fill="#5E6071"/>
<rect id="Rectangle 240652343" x="41.1747" y="34.2578" width="3.88397" height="3.88397" transform="rotate(55.9525 41.1747 34.2578)" fill="#5E6071"/>
<rect id="Rectangle 240652341" x="12.2959" y="10.8623" width="2.29904" height="2.29904" transform="rotate(-6.62438 12.2959 10.8623)" fill="#5E6071"/>
<rect id="Rectangle 240652344" x="8.69885" y="1.97607" width="2.29904" height="2.29904" transform="rotate(-59.2555 8.69885 1.97607)" fill="#5E6071"/>
<rect id="Rectangle 240652342" x="30.6952" y="29.0054" width="2.29904" height="2.29904" transform="rotate(60 30.6952 29.0054)" fill="#5E6071"/>
</g>
</svg>
