<svg width="45" height="47" viewBox="0 0 45 47" fill="none" xmlns="http://www.w3.org/2000/svg">
<g id="Frame 2087327491">
<ellipse id="Ellipse 190" cx="22.405" cy="23.0415" rx="22.405" ry="23.0415" fill="#5E6071"/>
<path id="!" d="M20.4587 26.9044V13H24.1856V26.9044H20.4587ZM22.3222 34.0429C21.8826 34.0429 21.486 33.9473 21.1324 33.7562C20.7788 33.5651 20.5017 33.2975 20.301 32.9535C20.1003 32.6094 20 32.2272 20 31.8067C20 31.3862 20.1003 31.004 20.301 30.66C20.5017 30.3159 20.7788 30.0484 21.1324 29.8572C21.486 29.6661 21.8826 29.5706 22.3222 29.5706C22.7618 29.5706 23.1583 29.6661 23.5119 29.8572C23.8655 30.0484 24.1426 30.3159 24.3433 30.66C24.544 31.004 24.6443 31.3862 24.6443 31.8067C24.6443 32.2272 24.544 32.6094 24.3433 32.9535C24.1426 33.2975 23.8655 33.5651 23.5119 33.7562C23.1583 33.9473 22.7618 34.0429 22.3222 34.0429Z" fill="#36384E"/>
</g>
</svg>
