<svg width="71" height="71" viewBox="0 0 71 71" fill="none" xmlns="http://www.w3.org/2000/svg">
<circle cx="35.5" cy="35.5" r="35.1682" fill="#5E6071" stroke="#D0D0D0" stroke-width="0.663551"/>
<path fill-rule="evenodd" clip-rule="evenodd" d="M18.6748 66.7676C20.4542 64.3461 21.8051 62.7057 21.8051 62.7057L23.2461 54.1185C23.5295 53.5384 24.5523 50.9041 25.7239 47.7874C27.6954 42.5426 30.0884 35.9314 30.0884 35.4434V32.3309C30.0884 32.3309 27.3055 31.3962 26.5452 30.6182C25.785 29.8401 25.5269 26.8839 25.5269 26.1058C25.5269 25.3276 26.2871 21.6651 26.5452 20.5024C26.7719 19.4812 28.9464 17.2524 32.0479 17.2524C32.4775 17.2524 32.925 17.2952 33.3875 17.3899C37.1887 18.168 50.5437 22.1597 50.5437 23.716C50.5437 24.5487 47.2829 26.1836 44.1344 27.7623C41.3985 29.1341 38.7473 30.4635 38.3939 31.187C37.6336 32.7433 38.3939 33.1777 38.3939 33.1777C38.3939 33.1777 41.4921 36.9997 42.2523 41.6684C42.2523 41.6684 48.6485 53.9843 55.2292 65.0173C49.5868 68.7962 42.8007 71.0001 35.4998 71.0001C29.412 71.0001 23.6821 69.4677 18.6748 66.7676Z" fill="#16161F"/>
<circle cx="35.5" cy="35.5" r="35.1682" stroke="#D0D0D0" stroke-width="0.663551"/>
</svg>
