<svg width="30" height="30" viewBox="0 0 30 30" fill="none" xmlns="http://www.w3.org/2000/svg">
<circle cx="15" cy="15" r="14" fill="#F9F96C" stroke="#20222F" stroke-width="2"/>
<g clip-path="url(#clip0_220_4856)">
<path d="M20.625 9.9375H18.6759L17.7176 8.50031C17.6662 8.42336 17.5967 8.36025 17.5151 8.31659C17.4336 8.27293 17.3425 8.25006 17.25 8.25H12.75C12.6575 8.25006 12.5664 8.27293 12.4849 8.31659C12.4033 8.36025 12.3338 8.42336 12.2824 8.50031L11.3234 9.9375H9.375C8.92745 9.9375 8.49822 10.1153 8.18176 10.4318C7.86529 10.7482 7.6875 11.1774 7.6875 11.625V19.5C7.6875 19.9476 7.86529 20.3768 8.18176 20.6932C8.49822 21.0097 8.92745 21.1875 9.375 21.1875H20.625C21.0726 21.1875 21.5018 21.0097 21.8182 20.6932C22.1347 20.3768 22.3125 19.9476 22.3125 19.5V11.625C22.3125 11.1774 22.1347 10.7482 21.8182 10.4318C21.5018 10.1153 21.0726 9.9375 20.625 9.9375ZM17.5312 15.2812C17.5312 15.7819 17.3828 16.2713 17.1047 16.6875C16.8265 17.1038 16.4312 17.4282 15.9687 17.6198C15.5061 17.8114 14.9972 17.8615 14.5062 17.7639C14.0152 17.6662 13.5641 17.4251 13.2101 17.0711C12.8561 16.7171 12.6151 16.2661 12.5174 15.7751C12.4197 15.2841 12.4698 14.7751 12.6614 14.3126C12.853 13.8501 13.1775 13.4547 13.5937 13.1766C14.01 12.8985 14.4994 12.75 15 12.75C15.6713 12.75 16.3152 13.0167 16.7899 13.4914C17.2646 13.9661 17.5312 14.6099 17.5312 15.2812Z" fill="#20222F"/>
</g>
<defs>
<clipPath id="clip0_220_4856">
<rect width="18" height="18" fill="white" transform="translate(6 6)"/>
</clipPath>
</defs>
</svg>
