<svg width="25" height="25" viewBox="0 0 25 25" fill="none" xmlns="http://www.w3.org/2000/svg">
<g id="Icon">
<path id="Subtract" fill-rule="evenodd" clip-rule="evenodd" d="M2.5 15.1625C2.7341 16.0424 3.08438 16.8871 3.54159 17.6745L6.30538 17.9982C6.526 18.2467 6.76122 18.4819 7.00978 18.7025L7.32008 21.4648C8.10846 21.9192 8.95366 22.2669 9.83356 22.499L12.0057 20.7646C12.3378 20.7843 12.6707 20.7843 13.0028 20.7646L15.175 22.5C16.055 22.2659 16.8999 21.9157 17.6874 21.4586L17.9977 18.6973C18.2463 18.4767 18.4815 18.2416 18.7021 17.993L21.4649 17.6828C21.9193 16.8945 22.2671 16.0495 22.4992 15.1697L20.7646 12.998C20.7843 12.6659 20.7843 12.333 20.7646 12.001L22.5002 9.82923C22.2661 8.94937 21.9159 8.1046 21.4586 7.31721L18.6969 7.00696C18.4763 6.75844 18.2411 6.52326 17.9925 6.30268L17.6822 3.54038C16.8941 3.0842 16.0489 2.7347 15.1687 2.50103L12.9966 4.23535C12.6645 4.2157 12.3316 4.2157 11.9995 4.23535L9.82735 2.5C8.94882 2.73171 8.10499 3.07914 7.31801 3.53315L7.00771 6.29441C6.75915 6.51499 6.52393 6.75016 6.30331 6.99868L3.54056 7.30894C3.0843 8.09691 2.73474 8.94199 2.50103 9.82199L4.23564 11.9938C4.21599 12.3258 4.21599 12.6587 4.23564 12.9907L2.5 15.1625ZM16.6334 12.4944C16.6334 14.779 14.7811 16.6311 12.496 16.6311C10.211 16.6311 8.35862 14.779 8.35862 12.4944C8.35862 10.2097 10.211 8.35767 12.496 8.35767C14.7811 8.35767 16.6334 10.2097 16.6334 12.4944Z" fill="#AFAFB8"/>
</g>
</svg>
