<svg width="41" height="40" viewBox="0 0 41 40" fill="none" xmlns="http://www.w3.org/2000/svg">
<g id="Icon/emotion">
<path id="Exclude" fill-rule="evenodd" clip-rule="evenodd" d="M20.6211 40C31.6668 40 40.6211 31.0457 40.6211 20C40.6211 8.95431 31.6668 0 20.6211 0C9.5754 0 0.621094 8.95431 0.621094 20C0.621094 31.0457 9.5754 40 20.6211 40ZM13.2638 20.5713H28.0497C28.6809 20.5713 29.184 21.0832 29.1036 21.7093C28.7891 24.1594 27.3632 29.7141 20.8977 29.7141C14.4849 29.7141 12.6993 24.2497 12.2191 21.7698C12.094 21.1235 12.6055 20.5713 13.2638 20.5713ZM17.764 14.857C17.764 16.1193 16.7407 17.1427 15.4783 17.1427C14.2159 17.1427 13.1926 16.1193 13.1926 14.857C13.1926 13.5946 14.2159 12.5712 15.4783 12.5712C16.7407 12.5712 17.764 13.5946 17.764 14.857ZM25.764 17.1427C27.0264 17.1427 28.0497 16.1193 28.0497 14.857C28.0497 13.5946 27.0264 12.5712 25.764 12.5712C24.5016 12.5712 23.4783 13.5946 23.4783 14.857C23.4783 16.1193 24.5016 17.1427 25.764 17.1427Z" fill="#AFAFB8"/>
</g>
</svg>
