<svg width="24" height="24" viewBox="0 0 24 24" fill="none" xmlns="http://www.w3.org/2000/svg">
<path d="M22.9232 12C22.9232 18.4099 17.8735 23.5862 11.6685 23.5862C5.46355 23.5862 0.413793 18.4099 0.413793 12C0.413793 5.59011 5.46355 0.413793 11.6685 0.413793C17.8735 0.413793 22.9232 5.59011 22.9232 12Z" stroke="#F13A1E" stroke-width="0.827586"/>
<path d="M10.4715 14.0244V5.79297H12.6779V14.0244H10.4715ZM11.5747 18.2504C11.3144 18.2504 11.0797 18.1938 10.8703 18.0807C10.661 17.9675 10.497 17.8091 10.3782 17.6055C10.2594 17.4018 10.2 17.1755 10.2 16.9266C10.2 16.6777 10.2594 16.4514 10.3782 16.2477C10.497 16.044 10.661 15.8856 10.8703 15.7725C11.0797 15.6593 11.3144 15.6028 11.5747 15.6028C11.8349 15.6028 12.0697 15.6593 12.279 15.7725C12.4883 15.8856 12.6524 16.044 12.7712 16.2477C12.89 16.4514 12.9494 16.6777 12.9494 16.9266C12.9494 17.1755 12.89 17.4018 12.7712 17.6055C12.6524 17.8091 12.4883 17.9675 12.279 18.0807C12.0697 18.1938 11.8349 18.2504 11.5747 18.2504Z" fill="#F13A1E"/>
</svg>
