<svg width="119" height="77" viewBox="0 0 119 77" fill="none" xmlns="http://www.w3.org/2000/svg">
<path d="M73.0596 0C73.0596 0 73.3985 9.27997 76.7884 12.6699C80.1783 16.0598 89.1193 16.0598 89.1193 16.0598C89.1193 16.0598 80.1782 16.3987 76.7884 19.7885C73.3986 23.1784 73.0596 32.1195 73.0596 32.1195C73.0596 32.1195 72.2121 22.8394 69.1613 19.7885C66.1104 16.7377 56.9998 16.0598 56.9998 16.0598C56.9998 16.0598 65.7713 16.0598 69.1613 12.6699C72.5512 9.27997 73.0596 0 73.0596 0Z" fill="#16161F"/>
<path d="M97.2549 32C97.2549 32 97.4291 36.77 99.1715 38.5124C100.914 40.2549 105.51 40.2549 105.51 40.2549C105.51 40.2549 100.914 40.4291 99.1715 42.1715C97.4291 43.9139 97.2549 48.5098 97.2549 48.5098C97.2549 48.5098 96.8193 43.7397 95.2511 42.1715C93.6829 40.6033 89 40.2549 89 40.2549C89 40.2549 93.5087 40.2549 95.2511 38.5124C96.9936 36.77 97.2549 32 97.2549 32Z" fill="#16161F"/>
<path d="M34.9336 7C34.9336 7 35.6708 27.186 43.0446 34.5598C50.4184 41.9336 69.8672 41.9336 69.8672 41.9336C69.8672 41.9336 50.4183 42.6708 43.0446 50.0445C35.671 57.4182 34.9336 76.8672 34.9336 76.8672C34.9336 76.8672 33.0902 56.6808 26.4539 50.0445C19.8176 43.4082 -2.90938e-07 41.9336 -2.90938e-07 41.9336C-2.90938e-07 41.9336 19.0801 41.9336 26.4539 34.5598C33.8277 27.186 34.9336 7 34.9336 7Z" fill="#16161F"/>
</svg>
