<svg width="73" height="87" viewBox="0 0 73 87" fill="none" xmlns="http://www.w3.org/2000/svg">
<path d="M72.9212 87H0C5.17576 77.8329 12.8614 68.5 12.8614 68.5L15.0331 55.5586C15.4602 54.6845 17.0016 50.7145 18.7672 46.0174C21.7384 38.1133 25.3447 28.15 25.3447 27.4145V22.7238C25.3447 22.7238 21.1508 21.3153 20.005 20.1427C18.8593 18.9702 18.4703 14.515 18.4703 13.3423C18.4703 12.1697 19.616 6.65013 20.005 4.89787C20.3467 3.35882 23.6237 0 28.2977 0C28.9452 0 29.6195 0.0644591 30.3166 0.207145C36.0452 1.37982 56.1717 7.3955 56.1717 9.74084C56.1717 10.9957 51.2576 13.4597 46.5126 15.8389C42.3895 17.9062 38.3941 19.9096 37.8614 21C36.7157 23.3453 37.8614 24 37.8614 24C37.8614 24 42.5306 29.76 43.6763 36.7959C43.6763 36.7959 56.2967 61.0968 67.5135 78.9962C69.4474 82.0821 71.2549 84.7195 72.9212 87Z" fill="#16161F"/>
</svg>
