<svg width="43" height="44" viewBox="0 0 43 44" fill="none" xmlns="http://www.w3.org/2000/svg">
<g id="emotion Icon">
<g id="Vector 413">
<path d="M13.7681 18.2241H10.7499C10.3541 18.2241 10.0332 18.545 10.0332 18.9408V31.3168C10.0332 31.7126 10.3541 32.0334 10.7499 32.0334H13.7681C14.1639 32.0334 14.4848 31.7126 14.4848 31.3168V18.9408C14.4848 18.545 14.1639 18.2241 13.7681 18.2241Z" fill="#AFAFB8"/>
<path d="M17.0249 17.0303L24.2329 9.44386C24.4309 9.23543 24.7357 9.16746 24.9741 9.32823C25.3337 9.57078 25.85 10.0317 26.1995 10.8263C26.6254 11.7944 25.8128 14.744 25.3374 16.2819C25.192 16.7525 25.5417 17.2377 26.0343 17.2377H33.4648C33.9363 17.2377 34.2794 17.6853 34.1568 18.1407L30.5596 31.5031C30.4754 31.816 30.1978 32.0334 29.8737 32.0334H17.5386C17.1428 32.0334 16.8278 31.7126 16.8278 31.3168V17.5239C16.8278 17.3402 16.8983 17.1635 17.0249 17.0303Z" fill="#AFAFB8"/>
</g>
</g>
</svg>
