<svg width="43" height="43" viewBox="0 0 43 43" fill="none" xmlns="http://www.w3.org/2000/svg">
<g id="emotion Icon">
<path id="Vector" d="M10.0335 22.9914V23.9087C10.0335 25.4782 10.3314 27.0323 10.9102 28.4818C11.489 29.9313 12.3373 31.2477 13.4064 32.3556C14.4755 33.4634 15.7444 34.3409 17.1403 34.9377C18.5362 35.5344 20.0317 35.8387 21.5409 35.8332C27.4948 35.8114 32.3461 31.0106 32.9106 24.9658C32.9167 24.8871 32.9031 24.808 32.8713 24.7363C32.8394 24.6646 32.7902 24.6027 32.7285 24.5566C32.6669 24.5104 32.5948 24.4816 32.5193 24.473C32.4438 24.4643 32.3674 24.4761 32.2975 24.5072C31.5042 24.8535 30.624 24.9219 29.7899 24.702C28.9559 24.4821 28.2134 23.9859 27.6745 23.2884C27.3214 23.745 26.8787 24.118 26.376 24.3825C25.8732 24.647 25.3219 24.7969 24.759 24.8222C24.1961 24.8475 23.6345 24.7476 23.1117 24.5291C22.5889 24.3107 22.1169 23.9788 21.7273 23.5555C21.3702 24.1588 20.8847 24.6687 20.3083 25.0461C20.9533 25.5593 21.4759 26.2201 21.8355 26.9773C22.1952 27.7345 22.3823 28.5677 22.3822 29.4123C22.3826 29.5395 22.3576 29.6654 22.3087 29.782C22.2598 29.8986 22.1882 30.0034 22.0983 30.0896C22.0084 30.1759 21.9022 30.2418 21.7865 30.2831C21.6708 30.3244 21.5481 30.3402 21.4263 30.3295C21.2024 30.3045 20.9956 30.1935 20.8462 30.0184C20.6967 29.8433 20.6154 29.6166 20.6181 29.3825C20.6105 28.4145 20.2355 27.4889 19.5746 26.8073C18.9138 26.1256 18.0207 25.7432 17.0899 25.7432C16.969 25.7435 16.8493 25.7179 16.7383 25.668C16.6273 25.6182 16.5273 25.5451 16.4446 25.4534C16.3618 25.3617 16.2981 25.2533 16.2574 25.1349C16.2167 25.0165 16.1998 24.8906 16.2078 24.7652C16.2276 24.5294 16.3323 24.3101 16.501 24.1512C16.6697 23.9924 16.8899 23.9057 17.1174 23.9087H17.9719C18.6737 23.9087 19.3468 23.6187 19.843 23.1027C20.3393 22.5866 20.6181 21.8867 20.6181 21.1569V19.3223H13.5617C12.6259 19.3223 11.7285 19.7089 11.0669 20.397C10.4052 21.085 10.0335 22.0183 10.0335 22.9914ZM30.6812 22.9914C29.486 22.9455 28.5565 21.8872 28.5565 20.6432V18.006C28.5565 16.7574 29.486 15.6991 30.6812 15.6532C30.9775 15.642 31.2729 15.693 31.5498 15.8032C31.8267 15.9134 32.0794 16.0805 32.2927 16.2946C32.5061 16.5086 32.6758 16.7653 32.7916 17.0491C32.9074 17.3329 32.967 17.6381 32.9668 17.9464V20.6982C32.967 21.0065 32.9074 21.3117 32.7916 21.5956C32.6758 21.8794 32.5061 22.136 32.2927 22.3501C32.0794 22.5641 31.8267 22.7313 31.5498 22.8415C31.2729 22.9517 30.9775 23.0026 30.6812 22.9914ZM24.5068 22.9914C23.3116 22.9467 22.3822 21.8884 22.3822 20.6443V15.2554C22.3822 14.0113 23.3116 12.953 24.5068 12.9083C24.8025 12.8971 25.0974 12.9479 25.3739 13.0576C25.6503 13.1674 25.9027 13.3339 26.116 13.5473C26.3293 13.7606 26.4991 14.0164 26.6153 14.2994C26.7315 14.5824 26.7917 14.8869 26.7924 15.1946V20.6982C26.7926 21.0065 26.733 21.3117 26.6172 21.5956C26.5014 21.8794 26.3317 22.136 26.1184 22.3501C25.905 22.5641 25.6523 22.7313 25.3754 22.8415C25.0985 22.9517 24.8031 23.0026 24.5068 22.9914ZM16.2078 15.1946C16.2076 14.8863 16.2672 14.5811 16.383 14.2973C16.4988 14.0135 16.6685 13.7568 16.8819 13.5428C17.0952 13.3287 17.3479 13.1616 17.6248 13.0514C17.9017 12.9412 18.1972 12.8902 18.4934 12.9014C19.6886 12.9473 20.6181 14.0056 20.6181 15.2496V17.4878H16.6488C16.5319 17.4878 16.4197 17.4395 16.337 17.3534C16.2543 17.2674 16.2078 17.1508 16.2078 17.0291V15.1946Z" fill="#AFAFB8"/>
<path id="Line 47" d="M10.0332 11.4666L12.0602 13.4936" stroke="#AFAFB8" stroke-width="1.43333" stroke-linecap="round"/>
<path id="Line 49" d="M22.1211 7.16675L21.4998 9.96529" stroke="#AFAFB8" stroke-width="1.43333" stroke-linecap="round"/>
<path id="Line 48" d="M15.3799 7.21973L16.1523 9.98038" stroke="#AFAFB8" stroke-width="1.43333" stroke-linecap="round"/>
</g>
</svg>
